<?xml version="1.0" encoding="utf-8"?>
<!-- Generator: Adobe Illustrator 19.2.0, SVG Export Plug-In . SVG Version: 6.00 Build 0)  -->
<!DOCTYPE svg PUBLIC "-//W3C//DTD SVG 1.1//EN" "http://www.w3.org/Graphics/SVG/1.1/DTD/svg11.dtd">
<svg version="1.1" id="Layer_1" xmlns="http://www.w3.org/2000/svg" xmlns:xlink="http://www.w3.org/1999/xlink" x="0px" y="0px"
	 viewBox="0 0 257.1 218.7" enable-background="new 0 0 257.1 218.7" xml:space="preserve">
<g>
	
		<circle fill="#231F20" stroke="#231F20" stroke-linecap="round" stroke-linejoin="round" stroke-miterlimit="10" cx="84.9" cy="79.3" r="1.4"/>
	
		<circle fill="#231F20" stroke="#231F20" stroke-linecap="round" stroke-linejoin="round" stroke-miterlimit="10" cx="26.7" cy="79.3" r="1.4"/>
	<g>
		<circle fill="#BBBDBF" cx="126.1" cy="109.3" r="109.3"/>
		<g>
			<polygon fill="#929496" points="56,94.3 54.3,96.1 55.5,97.3 57.9,97.7 60.2,100.4 63.8,101 64.1,99.4 62.2,98 59.5,95.9 			"/>
			<polygon fill="#929496" points="66.2,104.1 68.2,104.4 70,103.7 71.2,105 69.9,106.8 68.9,109.1 66.6,107.7 65.9,105.8 
				64.5,105.6 			"/>
			<path fill="#929496" d="M25.2,75.8l1.1-0.9l0.2-1.3L27,71l0.5-3l0.6,2.2c0,0,1.2,4.4,1.1,4.8s0.4,6,0.4,6l-0.6,3.5l0.8,2.9
				l1.5,2.3l1.6,4.2l3.4,1l2.6,4.4l2,2.3l1.3,1.9c0,0-0.3,4-0.3,4.4s1.1,3.4,1.1,3.4l2.4,1.5l-0.8,3.6l-1.6,6.2l-1.9,2l0.6,2
				l-1.4,7.6l3.9,6.5l2.4,2.8l3.3,3.3l2.6,1.7l4.2,2l1.7,1.5l1.7,5.5l1.5,4.4l1.1,5.5l1.5,3.4l2,3.1l2.3,5l1.6,2.9l2.3,2.7l1.8,0.7
				l-0.1,1.9l4.7,6.7l3.7,3.7l2.3,1.4l3.4,0.6l2.6-0.5l3.2,0.6l0.8-0.7l-1.2-0.9l-1.2-0.2l-2-0.3l-0.9-0.2l-0.3-1.7l-1.7-0.8
				l-1.7-1.7l-1-1.6l-1.3-0.8l0.8-2.1l0.2-2.9l-1.9-2.4l1.1-1.6l0.5-2.8l-1.5-1.1l-1.3-1.1l0.6-2.1l0-3.2l0-1.8l1.1-0.8l1.4-1.4
				c0,0,0.8-4.4,1-4.9c0.2-0.5,1.2-1.9,1.2-1.9l2.1-1l1.6-1.8l0.4-3.8l-0.1-4.2l-0.7-3.9l0.8-3.6l2.5-1.5l1.4-2.5l1.7-10.1l-0.4-2.4
				l-1-1.7l-1.6-2.1l-2.2-0.4l-2.1,0.9l-2.1-0.6l-0.9-1.3l-2.6-1l-1.6,0.6l-3.7,1.7l-1.9,0.5l-0.4-1.7l-1.7-3.7c0,0-0.7-1.8-1-2.5
				c-0.3-0.7-2.1,0.1-2.1,0.1l-3.2-0.7l-2.1-1.3l-3.1,0.2l-1.6-0.1l-1.6-2.2l-1.6-0.5l-1.9,0.4l-0.7,2.4l-1.1,1l-0.9-0.2l0-1.7
				l-0.2-1.3l-2.8-1.3l-2.8,1.6l-2.6-0.4l-0.2-2.7l0.5-2.7l0.2-3.4l2.3-2l-0.2-2.1l1-0.8l1.5,1.2l1.4-0.9l0.1-2.3L49.5,93l-2.3-0.3
				l-2.1,0.9l-0.6,1.1l-0.7,1.7l-1.6,0.3l-0.9-1.4l-0.2-3.9l1.9-4l1.9-0.8l2.2,0.1l2.8,0.1l2.4-1l2.5,0.8l1.5,1.2l1.2,3.7l1.8-0.7
				l0-2.2l0-2.2l1.6-2.6l3.2-0.8l3.7-0.5l0.9-2.2l1-3.3l2.6,0.4l1.8-1.1l0.6-1.8l2.2-1.7l1.1-2.2l1.4-0.3l0,1.5l0.8,0.7l1-1.6
				l1.5-0.2l0.2,1.5l-1.1,1.3l1.3,0.2l2.2-0.6l2-1.4l2-1.2l-0.4-1.9l-1,0.2l-2,0.2L85,67.8l0.4-1.6l1.5-0.7l0.9-1l2-1l1.7,0.7
				l0.8-1.3l1.5-0.8l2.1-0.1l0.2-1.1L95.2,59l-0.5-1.3l-0.9-1.4l-0.6-1.3l-1.9-0.5l-1.9-1.7l-1.6-2.5l-2.1-1.2l-2-1l-3.1-1.8
				l0.4-2.4l-2.8-0.9l-1.7,0.4l-1.6,1.8l0.3,1.5l0.1,2.6l0.3,3l-0.4,2.3l-3,3.6L72.1,61l-1.6,0.6l-1.9-0.3l-2.9-1.6l1.8-3.4
				l-2.8-0.5l2.4-4.2l-3.2-3l3.2,0.6l2.1-2.5L66.7,44l4-1.8l-2.5-2.5l4.1-2.2l3.5-0.9l-2.7-3.1l-0.5-1.3l-5.2,4.9l-5.6-1.4L58.2,38
				l-6.5-1.1L48.9,32C38,42.8,29.4,56,23.9,70.6l0,2.9L25.2,75.8z"/>
			<path fill="#929496" d="M60.5,30.7l2.1,2.2l3.1-1.3l2.8-2.8l1.4-1.9l4.4,0.8l2.8,0.5l-0.5,3.1l2.4,0.4l2.4,0.4l1.3,1.9l-0.4,2.4
				l1.9,2.4l2.7-1.4l1.9-1.3L88,33.1l-3-0.5L83,30.1l0.6-2.1l1.4-1.8L84.4,24l-2.9-0.3l-4-0.7l-1.7,1.4L72.3,23l-2.8-0.5l-3.8-0.7
				l0.3-1.8l1.8-0.9L65,18.6c-0.6,0.4-1.3,0.9-1.9,1.3l-0.2,1.4l-2.5,1.2l-2.1,1c0,0-0.1,0.1-0.1,0.1l-0.5,3L60.5,30.7z"/>
			<polygon fill="#929496" points="87.9,18.2 87.4,21 88.6,22.7 90.4,26.5 91.6,26.7 93.2,28.2 94.3,30.3 91.2,31.5 91.7,33.8 
				92,35.7 91.7,38.5 92.4,41.6 90.3,44.1 93.1,44.6 96,46.3 98.3,50.2 98.7,47.8 99,46 99.3,44.4 99.1,41.3 97.5,37.1 97.9,34.8 
				101,39.7 103.1,39.9 104.7,37.4 103.8,35.8 107.6,36.7 108.8,34.5 107.1,31.8 105.1,27.8 102.6,25.1 97.3,21.2 94.4,21.6 
				91.6,19.8 90.5,17.6 			"/>
			<path fill="#929496" d="M206,37.1l-2.1-0.7l-1.8,0.1l-0.3-1.9l-1.7-0.9l-1.9-4l0.8-2c-3-2.7-6.2-5.3-9.6-7.6l-0.8,1.2l-3.1-0.4
				l-2.3,2l-2.8,1.4l-2.1,1.8l-1.8,3.8l-5.5,3.6l-4.9,3l-1.9,2.5l-2.5-1.2l-2-3.1l-0.6-3.6l-1.6,1.3l0.3,3.9l1.2,2l-0.3,2l1.7,0.9
				l-2,1.5l-1.4,0.9l2.1,1.5l-1.5,1.5l-2.7,0l-1.5,1.5l-1.8,1.3l-1,2.9l-1.1,1.7l2.6,1.9l-1.3,1.3l-1.6,3.4l-2.5,1.8l-2.7,0.2
				l-2,1.2l1.7,1.5l1.9,3.4l1.5,3.2l1,1l2.2-0.1l1.4-1.1l4.6-1.3l0.8-3.1l-0.3-4.7l-0.1-2.2l1.5-1.9l3.9-0.7L167,58l4.8,1.7l2.3,3.6
				l0.1,1.3l1.8-1.4l-0.2-2.6l2.2-1.2l-2.9-0.6l-3-1.4l-2.1-1.5l-2.6-1.5l0.3-1.9l3.7-0.2l6.3,2.3l2.4,2.9l1.6,2.6l3.2,1.8l2.1,0.1
				l3.5-2.7l-2.5-3.3c0,0-0.4-0.6,0.1-1.2s4.7-0.3,4.7-0.3l0.2,2.9l2,1.9l2.6-0.6l2.4-0.6l2-0.7l2.2,2.3l0.3,4.1l-2.6,1l9.6,14.7
				l-0.9,1.9l1.1,0.7l1.3,1.3l3.1-0.2l4.6-4.4l4.7-2.8l3.6-4.2c-1.5-4.1-3.2-8.1-5.2-11.9l-1.7,0.7l-0.4,2.7l-1.4,0.5l-2.7-3.3
				l-2.1-0.7l-2.5-0.2l-2.1-0.3l0.8-3.9l2.1-2.4l4.3-0.3l2.5,1.3C217,48,212.8,42.3,208.1,37L206,37.1z M206.7,47.6l-0.1,1.8
				l-1.8,1.3l-3.7,0.2l-1.6,0.1l-2.4,1.4l-1.8,0.1l-1.8,1.2l-1.7-1.7l1.3-1.6l2.3,0.4l2.4-0.7l1.5-2.6l-0.2-2.7l1.5-2.1l3.6-1.5
				l2.7,0.8l1,2.2l-1.7,1.5L206.7,47.6z"/>
			<path fill="#929496" d="M159.4,8.5l-2.2,1l-1.3,2.1l-1.2,3.8L153,19l-3.5,2.5l0.2,2.7l-1.7,2.4l0.2,2.7l1.6,0.1l-0.2,2.5l2,2.5
				l2.8-1.6l2.4-3.4l2.4-3.4l2.2,2.3l-0.1,4.3l0.8,2.8l1.3,0.7l2.1-2l1-3.3l1.5-2.6l0.6-2.9L167,24l-2.8,0.4l-0.3-1.8l2-0.7l0.7-1.9
				l-0.8-2.4l0-2.5l2.9-2.2l1.7,1.3l0,2.7l1.7,0.9l1.2,3.2l3,2.7l3-1.4l3.8-2.1l2.3-2.4l0.2-0.1c-7.1-4.6-14.8-8.5-23-11.4L162,7.1
				L159.4,8.5z"/>
			<path fill="#929496" d="M142.7,38.4l1.2-0.1l0.9-0.9l0.7,1.7l1.5,1.3l0.1,1.8l2.5,0.4l1.2-0.1l1,1.5c0,0,0.1,1.4,0.1,1.6
				c0,0.2-1.6,1.8-1.6,1.8l-2.5,1.8L148,51l-1,0.1l-1-1.4l-1.3-0.2l0.9-0.8l1.3-1.1l-0.4-2.3l-1.1-1.4l-1.3-0.2c0,0-1-0.8-0.9-1.1
				c0.1-0.3,0.4-1.9,0.4-1.9L142.7,38.4z"/>
			<polygon fill="#929496" points="139.7,42.5 138.9,43.3 138.9,44.7 137.9,45.8 139.2,49.4 140.2,50 141.6,49.9 142,47.5 
				142.5,46.1 142.5,45 141.5,43.9 141.1,42.7 			"/>
			<polygon fill="#929496" points="155.1,72.9 152.9,73.8 150.3,77.5 149.8,79.7 150,83.1 147.8,86.7 149.2,90.8 149.6,95.9 
				153.4,101.9 158.5,104.7 163.9,103.5 166.5,103 168.3,102.2 171.4,99.9 176.8,102.1 178.3,104.9 181.2,110.2 182.2,114.2 
				186,118.5 189,122.3 189.8,126.7 192.5,130 193.7,133.2 194.9,135.4 195.2,138.9 197.9,141.2 198,143.5 199.5,146.3 199.7,148.1 
				201.3,149.1 203.3,148 206.7,147.6 211.3,144.4 212.4,140.4 213,137.7 214.3,136.4 214,132.5 213,131.1 213.8,128.5 216.5,126 
				216.2,121.9 215.9,116.6 215.6,112.9 214.8,108.6 216.2,107.5 216.5,104.3 215.7,103.3 217.3,101.2 217.8,97.1 217.6,94.1 
				219.9,90 221.1,87.3 217.1,87.3 214,86.9 212.5,84.6 210.6,83.7 207.9,80.1 201.3,70.6 199.7,66.7 194.4,67.1 192.9,68.6 
				189.7,68.4 187.3,67.6 182.2,67.9 179.1,69.6 177.6,71.9 173.9,71.1 171.5,70.4 170.4,68.6 168.4,67.6 165.5,67.8 164.2,69.7 
				162.4,70.3 161.7,72.1 159.3,72.4 156.7,71.7 			"/>
			<polygon fill="#929496" points="227.1,115.9 224.7,118.5 224.8,120.7 225.8,125 224.9,128.9 226.1,131.8 228.7,132.8 
				231.1,131.9 231.7,128.5 232.1,124.1 231,120.7 230.5,115.7 230.1,113.4 228.1,113.6 			"/>
			<polygon fill="#929496" points="96.6,65.5 95.2,65.3 94.7,68.3 92.1,68.9 92.7,70.4 95.7,71 97.7,71.3 98.2,68.6 96.8,68.3 			
				"/>
			<polygon fill="#929496" points="170.2,62.4 169.3,63.4 170.4,65.2 171.8,65.1 			"/>
		</g>
	</g>
	<path fill="none" stroke="#231F20" stroke-linecap="round" stroke-linejoin="round" stroke-miterlimit="10" d="M84.9,79.3l-14.7,0
		c0-3.2-2.6-5.8-5.8-5.8c-2.2,0-4.2,1.3-5.1,3.1c-1.1-3.3-4.2-5.7-7.9-5.7c-4.6,0-8.3,3.7-8.3,8.3l-16.2,0"/>
	<g>
		
			<circle fill="#231F20" stroke="#231F20" stroke-linecap="round" stroke-linejoin="round" stroke-miterlimit="10" cx="91.2" cy="35.8" r="1.4"/>
		
			<circle fill="#231F20" stroke="#231F20" stroke-linecap="round" stroke-linejoin="round" stroke-miterlimit="10" cx="190.5" cy="35.8" r="1.4"/>
		
			<circle fill="#231F20" stroke="#231F20" stroke-linecap="round" stroke-linejoin="round" stroke-miterlimit="10" cx="91.4" cy="35.8" r="1.4"/>
		<path fill="none" stroke="#231F20" stroke-linecap="round" stroke-linejoin="round" stroke-miterlimit="10" d="M91.4,35.8h28.4
			c0-4.1,3.4-7.5,7.5-7.5c1.9,0,3.7,0.7,5,2c1.8-2.9,5-4.8,8.7-4.8c5.7,0,10.3,4.6,10.3,10.3h39.3"/>
	</g>
	<g>
		
			<circle fill="#231F20" stroke="#231F20" stroke-linecap="round" stroke-linejoin="round" stroke-miterlimit="10" cx="182.6" cy="190.7" r="1.4"/>
		
			<circle fill="#231F20" stroke="#231F20" stroke-linecap="round" stroke-linejoin="round" stroke-miterlimit="10" cx="83.2" cy="190.7" r="1.4"/>
		
			<circle fill="#231F20" stroke="#231F20" stroke-linecap="round" stroke-linejoin="round" stroke-miterlimit="10" cx="182.4" cy="190.7" r="1.4"/>
		<path fill="none" stroke="#231F20" stroke-linecap="round" stroke-linejoin="round" stroke-miterlimit="10" d="M182.4,190.7H154
			c0-4.1-3.4-7.5-7.5-7.5c-1.9,0-3.7,0.7-5,2c-1.8-2.9-5-4.8-8.7-4.8c-5.7,0-10.3,4.6-10.3,10.3H83.2"/>
	</g>
	<g>
		<g>
			
				<circle fill="#231F20" stroke="#231F20" stroke-linecap="round" stroke-linejoin="round" stroke-miterlimit="10" cx="1.9" cy="103.7" r="1.4"/>
			
				<circle fill="#231F20" stroke="#231F20" stroke-linecap="round" stroke-linejoin="round" stroke-miterlimit="10" cx="255.2" cy="103.7" r="1.4"/>
			
				<line fill="none" stroke="#231F20" stroke-linecap="round" stroke-linejoin="round" stroke-miterlimit="10" x1="3.3" y1="103.7" x2="255.2" y2="103.7"/>
		</g>
		<g>
			
				<circle fill="#231F20" stroke="#231F20" stroke-linecap="round" stroke-linejoin="round" stroke-miterlimit="10" cx="25.3" cy="118.6" r="1.4"/>
			<polyline fill="none" stroke="#231F20" stroke-miterlimit="10" points="60.1,103.7 45.2,118.6 25.3,118.6 			"/>
		</g>
		<g>
			
				<ellipse fill="#231F20" stroke="#231F20" stroke-linecap="round" stroke-linejoin="round" stroke-miterlimit="10" cx="227" cy="88.7" rx="1.4" ry="1.4"/>
			<polyline fill="none" stroke="#231F20" stroke-miterlimit="10" points="182.2,103.7 196.7,88.7 227,88.7 			"/>
		</g>
	</g>
	
		<circle fill="#231F20" stroke="#231F20" stroke-linecap="round" stroke-linejoin="round" stroke-miterlimit="10" cx="31.3" cy="175.8" r="1.4"/>
	
		<circle fill="#231F20" stroke="#231F20" stroke-linecap="round" stroke-linejoin="round" stroke-miterlimit="10" cx="213.9" cy="184.8" r="1.4"/>
	
		<circle fill="#231F20" stroke="#231F20" stroke-linecap="round" stroke-linejoin="round" stroke-miterlimit="10" cx="222.9" cy="175.8" r="1.4"/>
	
		<circle fill="#231F20" stroke="#231F20" stroke-linecap="round" stroke-linejoin="round" stroke-miterlimit="10" cx="40.3" cy="184.8" r="1.4"/>
	
		<ellipse fill="#231F20" stroke="#231F20" stroke-linecap="round" stroke-linejoin="round" stroke-miterlimit="10" cx="84.9" cy="79.3" rx="1.4" ry="1.4"/>
	
		<ellipse fill="#231F20" stroke="#231F20" stroke-linecap="round" stroke-linejoin="round" stroke-miterlimit="10" cx="26.8" cy="79.3" rx="1.4" ry="1.4"/>
	<g>
		
			<circle fill="#231F20" stroke="#231F20" stroke-linecap="round" stroke-linejoin="round" stroke-miterlimit="10" cx="102.6" cy="48.3" r="1.4"/>
		
			<circle fill="#231F20" stroke="#231F20" stroke-linecap="round" stroke-linejoin="round" stroke-miterlimit="10" cx="249.3" cy="48.3" r="1.4"/>
		
			<line fill="#231F20" stroke="#231F20" stroke-linecap="round" stroke-linejoin="round" stroke-miterlimit="10" x1="102.6" y1="48.3" x2="249.3" y2="48.3"/>
		
			<ellipse fill="#231F20" stroke="#231F20" stroke-linecap="round" stroke-linejoin="round" stroke-miterlimit="10" cx="143.2" cy="63.3" rx="1.4" ry="1.4"/>
		<polyline fill="none" stroke="#231F20" stroke-miterlimit="10" points="188.1,48.3 173.5,63.3 143.2,63.3 		"/>
	</g>
	<path fill="#FFFFFF" stroke="#231F20" stroke-miterlimit="10" d="M96.8,94.4"/>
	<g>
		
			<line fill="none" stroke="#231F20" stroke-linecap="round" stroke-linejoin="round" stroke-miterlimit="10" x1="56.1" y1="150.9" x2="31.3" y2="175.8"/>
		
			<line fill="none" stroke="#231F20" stroke-linecap="round" stroke-linejoin="round" stroke-miterlimit="10" x1="65.1" y1="159.9" x2="40.3" y2="184.8"/>
	</g>
	<g>
		
			<line fill="none" stroke="#231F20" stroke-linecap="round" stroke-linejoin="round" stroke-miterlimit="10" x1="198.1" y1="150.9" x2="222.9" y2="175.8"/>
		
			<line fill="none" stroke="#231F20" stroke-linecap="round" stroke-linejoin="round" stroke-miterlimit="10" x1="189.1" y1="159.9" x2="213.9" y2="184.8"/>
	</g>
	<g>
		<path fill="#231F20" stroke="#929496" stroke-miterlimit="10" d="M126.1,106.2l17.6-17.6c5.4-5.4,13.5-5.4,19,0.1l36.9,36.1
			c2,2,2,5.1,0,7.1L169.3,162c-1.9,1.9-5.1,1.9-7.1,0l-36.2-36.2C120.7,120.4,120.7,111.6,126.1,106.2z"/>
		<path fill="#FFFFFF" stroke="#929496" stroke-miterlimit="10" d="M179.3,170.4l28.7-28.7c1-1,0.7-2.9-0.6-3.7l-8.4-5.6l-29,29
			l5.6,8.4C176.4,171.2,178.2,171.5,179.3,170.4z"/>
		<g>
			<g>
				<circle fill="#929496" stroke="#929496" stroke-miterlimit="10" cx="177.8" cy="135.1" r="1.2"/>
				<circle fill="#929496" stroke="#929496" stroke-miterlimit="10" cx="177.8" cy="145.6" r="1.2"/>
				<line fill="none" stroke="#929496" stroke-miterlimit="10" x1="177.8" y1="145.6" x2="177.8" y2="135.1"/>
			</g>
			<g>
				<circle fill="#929496" stroke="#929496" stroke-miterlimit="10" cx="172.6" cy="140.3" r="1.2"/>
				<circle fill="#929496" stroke="#929496" stroke-miterlimit="10" cx="183.1" cy="140.3" r="1.2"/>
				<line fill="none" stroke="#929496" stroke-miterlimit="10" x1="183.1" y1="140.3" x2="172.6" y2="140.3"/>
			</g>
		</g>
		<path fill="#231F20" stroke="#929496" stroke-miterlimit="10" d="M165.9,91.2c-15-15-29.1-9.7-38-0.8c-8.3,8.3-14.2,23-0.6,36.7
			s25,2.5,32.4-4.9S176.6,101.9,165.9,91.2z"/>
		<path fill="#231F20" stroke="#929496" stroke-miterlimit="10" d="M198.4,123.8l-16.8-22.9c-3.1-4.4-9-5.2-12.4-1.8l-13.4,13.4
			c-3,3-2.7,8.1,0.6,11.4l0.9,0.9c3.3,3.3,8.4,3.6,11.4,0.6l8.2-8.2"/>
		<path fill="#fe4c4c" stroke="#231F20" stroke-linecap="round" stroke-linejoin="round" stroke-miterlimit="10" d="M128.8,106.2
			l-17.6-17.6c-5.4-5.4-15-4.6-20.5,0.9l-35.4,35.3c-2,2-2,5.1,0,7.1L85.6,162c1.9,1.9,5.1,1.9,7.1,0l36.2-36.2
			C134.2,120.4,134.2,111.6,128.8,106.2z"/>
		<path fill="#FFFFFF" stroke="#231F20" stroke-linecap="round" stroke-linejoin="round" stroke-miterlimit="10" d="M75.6,170.4
			L47,141.8c-1-1-0.7-2.9,0.6-3.7l8.4-5.6l29,29l-5.6,8.4C78.5,171.2,76.7,171.5,75.6,170.4z"/>
		<g>
			<g>
				
					<circle fill="#231F20" stroke="#231F20" stroke-linecap="round" stroke-linejoin="round" stroke-miterlimit="10" cx="77.1" cy="135.1" r="1.2"/>
				
					<circle fill="#231F20" stroke="#231F20" stroke-linecap="round" stroke-linejoin="round" stroke-miterlimit="10" cx="77.1" cy="145.6" r="1.2"/>
				<line fill="#FFFFFF" stroke="#000000" stroke-miterlimit="10" x1="77.1" y1="145.6" x2="77.1" y2="135.1"/>
			</g>
			<g>
				
					<circle fill="#231F20" stroke="#231F20" stroke-linecap="round" stroke-linejoin="round" stroke-miterlimit="10" cx="82.3" cy="140.3" r="1.2"/>
				
					<circle fill="#231F20" stroke="#231F20" stroke-linecap="round" stroke-linejoin="round" stroke-miterlimit="10" cx="71.8" cy="140.3" r="1.2"/>
				<line fill="#FFFFFF" stroke="#000000" stroke-miterlimit="10" x1="71.8" y1="140.3" x2="82.3" y2="140.3"/>
			</g>
		</g>
		<path fill="#fe4c4c" stroke="#231F20" stroke-linecap="round" stroke-linejoin="round" stroke-miterlimit="10" d="M89,91.2
			c15-15,29.1-9.7,38-0.8c8.3,8.3,14.2,23,0.6,36.7s-25,2.5-32.4-4.9C87.9,114.8,78.3,101.9,89,91.2z"/>
		<path fill="#fe4c4c" stroke="#231F20" stroke-linecap="round" stroke-linejoin="round" stroke-miterlimit="10" d="M56.3,124
			l17-23.1c3.1-4.4,9-5.2,12.4-1.8l13.4,13.4c3,3,2.7,8.1-0.6,11.4l-0.9,0.9c-3.3,3.3-8.4,3.6-11.4,0.6l-8.2-8.2"/>
	</g>
</g>
</svg>
