<?xml version="1.0" encoding="utf-8"?>
<!-- Generator: Adobe Illustrator 19.2.0, SVG Export Plug-In . SVG Version: 6.00 Build 0)  -->
<!DOCTYPE svg PUBLIC "-//W3C//DTD SVG 1.1//EN" "http://www.w3.org/Graphics/SVG/1.1/DTD/svg11.dtd">
<svg version="1.1" id="Layer_1" xmlns="http://www.w3.org/2000/svg" xmlns:xlink="http://www.w3.org/1999/xlink" x="0px" y="0px"
	 viewBox="0 0 242.7 244.2" enable-background="new 0 0 242.7 244.2" xml:space="preserve">
<g>
	<circle fill="#BCBDBF" cx="121.3" cy="122.8" r="121.3"/>
	<path fill="#D8D8D7" d="M121.3,198c33.1,0,61.4-20.1,73-48.6h-146C59.9,177.9,88.2,198,121.3,198z"/>
	<polygon fill="#D8D8D7" points="48.3,123.6 121.3,1.5 194.3,123.6 	"/>
	
		<line fill="none" stroke="#231F20" stroke-linecap="round" stroke-linejoin="round" stroke-miterlimit="10" x1="121.3" y1="73.6" x2="121.3" y2="95.7"/>
	<polygon fill="#FFFFFF" stroke="#231F20" stroke-linecap="round" stroke-linejoin="round" stroke-miterlimit="10" points="
		194.3,123.6 121.3,95.7 48.3,123.6 118.8,150.6 118.8,150.6 132,155.7 165.3,142.6 155.1,138.6 	"/>
	<polygon fill="#FFFFFF" stroke="#231F20" stroke-linecap="round" stroke-linejoin="round" stroke-miterlimit="10" points="
		132.3,164.9 143,168.4 176.3,155.3 165.3,152.3 	"/>
	<polygon fill="#FFFFFF" stroke="#231F20" stroke-linecap="round" stroke-linejoin="round" stroke-miterlimit="10" points="
		143.3,177.5 154.1,181 187.3,167.9 176.3,164.9 	"/>
	
		<line fill="none" stroke="#231F20" stroke-linecap="round" stroke-linejoin="round" stroke-miterlimit="10" x1="48.3" y1="101.5" x2="48.3" y2="124.2"/>
	
		<line fill="none" stroke="#231F20" stroke-linecap="round" stroke-linejoin="round" stroke-miterlimit="10" x1="194.3" y1="101.5" x2="194.3" y2="125.6"/>
	
		<line fill="none" stroke="#231F20" stroke-linecap="round" stroke-linejoin="round" stroke-miterlimit="10" x1="121.3" y1="129.4" x2="121.3" y2="151.6"/>
	<polygon fill="#fe4c4c" stroke="#231F20" stroke-linecap="round" stroke-linejoin="round" stroke-miterlimit="10" points="
		132,155.7 132,164.9 165.3,152.3 165.3,142.6 	"/>
	<polygon fill="#fe4c4c" stroke="#231F20" stroke-linecap="round" stroke-linejoin="round" stroke-miterlimit="10" points="
		143,168.4 143,177.5 176.3,164.9 176.3,155.3 	"/>
	<polygon fill="#fe4c4c" stroke="#231F20" stroke-linecap="round" stroke-linejoin="round" stroke-miterlimit="10" points="
		154.3,181 154.3,190.2 187.6,177.6 187.6,167.9 	"/>
	<polygon stroke="#231F20" stroke-linecap="round" stroke-linejoin="round" stroke-miterlimit="10" points="155.1,138.6 
		165.3,142.6 165.3,152.3 176.3,155.3 176.3,156.6 194.3,149.7 194.3,123.6 194.3,123.6 	"/>
	<polygon fill="#231F20" stroke="#231F20" stroke-linecap="round" stroke-linejoin="round" stroke-miterlimit="10" points="
		143,168.4 132.3,164.9 165.3,152.3 132,164.9 132,155.7 121.3,151.6 118.8,150.6 48.3,123.6 48.3,123.6 48.3,149.7 154.3,190.2 
		154.3,181 143,177.5 	"/>
	
		<line fill="none" stroke="#231F20" stroke-linecap="round" stroke-linejoin="round" stroke-miterlimit="10" x1="48.3" y1="114.6" x2="121.3" y2="86.7"/>
	
		<line fill="none" stroke="#231F20" stroke-linecap="round" stroke-linejoin="round" stroke-miterlimit="10" x1="48.3" y1="109.6" x2="121.3" y2="81.7"/>
	
		<line fill="none" stroke="#231F20" stroke-linecap="round" stroke-linejoin="round" stroke-miterlimit="10" x1="194.3" y1="114.6" x2="121.3" y2="86.7"/>
	
		<line fill="none" stroke="#231F20" stroke-linecap="round" stroke-linejoin="round" stroke-miterlimit="10" x1="194.3" y1="109.6" x2="121.3" y2="81.7"/>
	
		<line fill="none" stroke="#231F20" stroke-linecap="round" stroke-linejoin="round" stroke-miterlimit="10" x1="48.3" y1="109.1" x2="121.3" y2="137.1"/>
	
		<line fill="none" stroke="#231F20" stroke-linecap="round" stroke-linejoin="round" stroke-miterlimit="10" x1="48.3" y1="114.1" x2="121.3" y2="142.1"/>
	
		<line fill="none" stroke="#231F20" stroke-linecap="round" stroke-linejoin="round" stroke-miterlimit="10" x1="194.3" y1="109.1" x2="154.8" y2="124.2"/>
	
		<line fill="none" stroke="#231F20" stroke-linecap="round" stroke-linejoin="round" stroke-miterlimit="10" x1="194.3" y1="114.1" x2="154.8" y2="129.2"/>
	
		<circle fill="#231F20" stroke="#231F20" stroke-linecap="round" stroke-linejoin="round" stroke-miterlimit="10" cx="48.2" cy="109.4" r="1.4"/>
	
		<circle fill="#231F20" stroke="#231F20" stroke-linecap="round" stroke-linejoin="round" stroke-miterlimit="10" cx="121.3" cy="81.7" r="1.4"/>
	
		<circle fill="#231F20" stroke="#231F20" stroke-linecap="round" stroke-linejoin="round" stroke-miterlimit="10" cx="194.3" cy="109.1" r="1.4"/>
	
		<circle fill="#231F20" stroke="#231F20" stroke-linecap="round" stroke-linejoin="round" stroke-miterlimit="10" cx="154.3" cy="124.2" r="1.4"/>
	
		<circle fill="#231F20" stroke="#231F20" stroke-linecap="round" stroke-linejoin="round" stroke-miterlimit="10" cx="154.3" cy="129.4" r="1.4"/>
	
		<circle fill="#231F20" stroke="#231F20" stroke-linecap="round" stroke-linejoin="round" stroke-miterlimit="10" cx="194.3" cy="114.6" r="1.4"/>
	
		<circle fill="#231F20" stroke="#231F20" stroke-linecap="round" stroke-linejoin="round" stroke-miterlimit="10" cx="121.3" cy="86.7" r="1.4"/>
	
		<circle fill="#231F20" stroke="#231F20" stroke-linecap="round" stroke-linejoin="round" stroke-miterlimit="10" cx="48.2" cy="114.1" r="1.4"/>
	<path fill="#FFFFFF" d="M122.8,46.1h-3c-1.4,0-2.6,1.2-2.6,2.6v7.8c0,1.4,1.2,2.6,2.6,2.6h3c1.4,0,2.6-1.2,2.6-2.6v-7.8
		C125.4,47.3,124.2,46.1,122.8,46.1z"/>
	<path fill="#EE7353" stroke="#231F20" stroke-linecap="round" stroke-linejoin="round" stroke-miterlimit="10" d="M48.3,123.6"/>
	
		<line fill="none" stroke="#FFFFFF" stroke-linecap="round" stroke-linejoin="round" stroke-miterlimit="10" x1="121.3" y1="0.5" x2="121.3" y2="55.6"/>
	
		<line fill="none" stroke="#FFFFFF" stroke-linecap="round" stroke-linejoin="round" stroke-miterlimit="10" x1="121.3" y1="63.6" x2="121.3" y2="66.8"/>
	
		<line fill="none" stroke="#FFFFFF" stroke-linecap="round" stroke-linejoin="round" stroke-miterlimit="10" x1="112.2" y1="53.4" x2="107.9" y2="53.4"/>
	
		<line fill="none" stroke="#FFFFFF" stroke-linecap="round" stroke-linejoin="round" stroke-miterlimit="10" x1="134.7" y1="53.4" x2="130" y2="53.4"/>
	
		<line fill="none" stroke="#FFFFFF" stroke-linecap="round" stroke-linejoin="round" stroke-miterlimit="10" x1="114" y1="60.6" x2="111.8" y2="62.9"/>
	
		<line fill="none" stroke="#FFFFFF" stroke-linecap="round" stroke-linejoin="round" stroke-miterlimit="10" x1="130.8" y1="43.9" x2="128.5" y2="46.1"/>
	
		<line fill="none" stroke="#FFFFFF" stroke-linecap="round" stroke-linejoin="round" stroke-miterlimit="10" x1="128.5" y1="60.6" x2="130.8" y2="62.9"/>
	
		<line fill="none" stroke="#FFFFFF" stroke-linecap="round" stroke-linejoin="round" stroke-miterlimit="10" x1="111.8" y1="43.9" x2="114" y2="46.1"/>
	<path fill="#D8D8D7" d="M117.2,51.5v1h1.3v6.3c0.3,0.2,0.6,0.3,1,0.3v-6.6h1.2v6.6h1v-6.6h1.2v6.6c0.4,0,0.7-0.1,1-0.3v-6.3h1.3v-1
		H117.2z"/>
	<g>
		<circle fill="#D8D8D7" cx="119" cy="49.7" r="0.4"/>
		<circle fill="#D8D8D7" cx="123.5" cy="49.7" r="0.4"/>
		<circle fill="#D8D8D7" cx="121.3" cy="49.7" r="0.4"/>
	</g>
	<g>
		<circle fill="#D8D8D7" cx="120.2" cy="47.7" r="0.4"/>
		<circle fill="#D8D8D7" cx="122.4" cy="47.7" r="0.4"/>
	</g>
</g>
</svg>
