<?xml version="1.0" encoding="utf-8"?>
<!-- Generator: Adobe Illustrator 19.2.0, SVG Export Plug-In . SVG Version: 6.00 Build 0)  -->
<!DOCTYPE svg PUBLIC "-//W3C//DTD SVG 1.1//EN" "http://www.w3.org/Graphics/SVG/1.1/DTD/svg11.dtd">
<svg version="1.1" id="Layer_1" xmlns="http://www.w3.org/2000/svg" xmlns:xlink="http://www.w3.org/1999/xlink" x="0px" y="0px"
	 viewBox="0 0 324.2 244.2" enable-background="new 0 0 324.2 244.2" xml:space="preserve">
<g>
	<circle fill="#FFFFFF" cx="162.1" cy="131.4" r="109.3"/>
	<circle fill="#BCBDBF" cx="162.1" cy="131.4" r="98.2"/>
	<circle fill="none" stroke="#fe4c4c" stroke-width="7" stroke-miterlimit="10" cx="162.1" cy="131.4" r="109.3"/>
	<g>
		<circle stroke="#000000" stroke-linecap="round" stroke-linejoin="round" stroke-miterlimit="10" cx="72.7" cy="100.5" r="1.4"/>
		<circle stroke="#000000" stroke-linecap="round" stroke-linejoin="round" stroke-miterlimit="10" cx="251.5" cy="100.5" r="1.4"/>
		
			<line fill="#231F20" stroke="#000000" stroke-linecap="round" stroke-linejoin="round" stroke-miterlimit="10" x1="72.7" y1="100.5" x2="251.5" y2="100.5"/>
	</g>
	<g>
		<circle stroke="#000000" stroke-linecap="round" stroke-linejoin="round" stroke-miterlimit="10" cx="89.7" cy="128.7" r="1.4"/>
		<circle stroke="#000000" stroke-linecap="round" stroke-linejoin="round" stroke-miterlimit="10" cx="234.5" cy="128.7" r="1.4"/>
		
			<line fill="#231F20" stroke="#000000" stroke-linecap="round" stroke-linejoin="round" stroke-miterlimit="10" x1="89.7" y1="128.7" x2="234.5" y2="128.7"/>
	</g>
	<circle fill="#231F20" stroke="#fe4c4c" stroke-width="7" stroke-miterlimit="10" cx="162.1" cy="28.2" r="24.7"/>
	
		<polygon fill="#FFFFFF" stroke="#FFFFFF" stroke-width="2" stroke-linecap="round" stroke-linejoin="round" stroke-miterlimit="10" points="
		162.1,16.9 164.7,24.8 173,24.8 166.3,29.7 168.9,37.6 162.1,32.7 155.4,37.6 158,29.7 151.2,24.8 159.5,24.8 	"/>
	<g>
		<g>
			
				<circle fill="#231F20" stroke="#231F20" stroke-linecap="round" stroke-linejoin="round" stroke-miterlimit="10" cx="30.1" cy="113.7" r="1.4"/>
			
				<circle fill="#231F20" stroke="#231F20" stroke-linecap="round" stroke-linejoin="round" stroke-miterlimit="10" cx="294.2" cy="113.7" r="1.4"/>
			<line fill="none" stroke="#000000" stroke-miterlimit="10" x1="30.1" y1="113.7" x2="292.7" y2="113.7"/>
			
				<ellipse stroke="#000000" stroke-linecap="round" stroke-linejoin="round" stroke-miterlimit="10" cx="278.5" cy="128.8" rx="1.4" ry="1.4"/>
			<polyline fill="none" stroke="#000000" stroke-miterlimit="10" points="239.2,113.9 253.7,128.8 278.5,128.8 			"/>
		</g>
		
			<ellipse stroke="#000000" stroke-linecap="round" stroke-linejoin="round" stroke-miterlimit="10" cx="45.7" cy="128.8" rx="1.4" ry="1.4"/>
		<polyline fill="none" stroke="#000000" stroke-miterlimit="10" points="85,113.9 70.5,128.8 45.7,128.8 		"/>
	</g>
	<g>
		
			<ellipse stroke="#000000" stroke-linecap="round" stroke-linejoin="round" stroke-miterlimit="10" cx="308.6" cy="101.5" rx="1.4" ry="1.4"/>
		<polyline fill="none" stroke="#000000" stroke-miterlimit="10" points="271.3,86.5 285.8,101.5 308.6,101.5 		"/>
		
			<ellipse stroke="#000000" stroke-linecap="round" stroke-linejoin="round" stroke-miterlimit="10" cx="15.6" cy="101.5" rx="1.4" ry="1.4"/>
		<polyline fill="none" stroke="#000000" stroke-miterlimit="10" points="53,86.5 38.5,101.5 15.6,101.5 		"/>
	</g>
	<g>
		<polygon fill="#FFFFFF" points="206.2,93.9 117.8,93.9 120,79 204,79 		"/>
		<polygon fill="#E83F30" points="229.3,175.9 206.4,93.9 117.8,93.9 94.9,175.9 151.6,184 162.1,145.6 172.7,184 		"/>
		<polygon fill="#231F20" points="229.3,175.9 206.4,93.9 117.8,93.9 94.9,175.9 151.6,184 162.1,145.6 172.7,184 		"/>
		<polygon fill="#fe4c4c" points="127.2,93.9 103.9,177.2 110.5,178.2 134,93.9 		"/>
		<polygon fill="#fe4c4c" points="165.4,93.9 158.9,93.9 134.4,181.5 141,182.5 162.1,106.7 		"/>
		<polygon fill="#fe4c4c" points="143,93.9 119.2,179.4 125.7,180.3 149.8,93.9 		"/>
		<polygon fill="#fe4c4c" points="197.1,93.9 220.3,177.2 213.7,178.2 190.2,93.9 		"/>
		<polygon fill="#fe4c4c" points="158.9,93.9 165.4,93.9 189.9,181.5 183.3,182.5 162.1,106.7 		"/>
		<polygon fill="#fe4c4c" points="181.2,93.9 205.1,179.4 198.5,180.3 174.4,93.9 		"/>
		<polygon fill="#FFFFFF" points="94.9,175.9 135,181.7 151.6,184 155.6,169.5 98.9,161.5 		"/>
		<polygon points="97,168.4 96.7,169.5 153.4,177.4 153.7,176.3 		"/>
		<polygon fill="#FFFFFF" points="229.3,175.9 225.3,161.6 168.7,169.5 172.7,184 		"/>
		<polygon points="227.2,168.4 170.6,176.4 170.9,177.4 227.5,169.5 		"/>
	</g>
	<g>
		
			<circle fill="#231F20" stroke="#231F20" stroke-linecap="round" stroke-linejoin="round" stroke-miterlimit="10" cx="1.9" cy="86.3" r="1.4"/>
		
			<circle fill="#231F20" stroke="#231F20" stroke-linecap="round" stroke-linejoin="round" stroke-miterlimit="10" cx="322.3" cy="86.3" r="1.4"/>
		<line fill="none" stroke="#000000" stroke-miterlimit="10" x1="1.9" y1="86.3" x2="320.9" y2="86.3"/>
	</g>
</g>
</svg>
